<svg xmlns="http://www.w3.org/2000/svg" height="24" viewBox="0 -960 960 960" width="24"><path style="fill: gray" d="M360-390q-21 0-35.5-14.5T310-440q0-21 14.5-35.5T360-490q21 0 35.5 14.5T410-440q0 21-14.5 35.5T360-390Zm240 0q-21 0-35.5-14.5T550-440q0-21 14.5-35.5T600-490q21 0 35.5 14.5T650-440q0 21-14.5 35.5T600-390ZM480-160q134 0 227-93t93-227q0-24-3-46.5T786-570q-21 5-42 7.5t-44 2.5q-91 0-172-39T390-708q-32 78-91.5 135.5T160-486v6q0 134 93 227t227 93Zm.174 28Q408-132 344.442-159.391q-63.559-27.392-110.575-74.348-47.015-46.957-74.441-110.435Q132-407.652 132-479.826q0-72.174 27.391-135.732 27.392-63.559 74.348-110.574 46.957-47.016 110.435-74.442Q407.652-828 479.826-828q72.174 0 135.732 27.391 63.559 27.392 110.574 74.348 47.016 46.957 74.442 110.435Q828-552.348 828-480.174q0 72.174-27.391 135.732-27.392 63.559-74.348 110.575-46.957 47.015-110.435 74.441Q552.348-132 480.174-132ZM377-785q51 106 145.5 151.5T700-588q20 0 39.5-2t38.5-7q-37-95-119.5-149T480-800q-30 0-54.5 3.5T377-785ZM162-517q65-27 136-94.5T377-785q-89 31-146 102.5T162-517Zm215-268Zm0 0Z"/></svg>