<?xml version="1.0" encoding="UTF-8"?>
<svg id="Ebene_1" data-name="Ebene 1" xmlns="http://www.w3.org/2000/svg" viewBox="0 0 114.25 55.13">
  <defs>
    <style>
      .cls-1 {
        fill: #1fe48f;
      }

      .cls-2, .cls-3 {
        fill: #fff;
      }

      .cls-2, .cls-4 {
        opacity: .99;
      }
    </style>
  </defs>
  <g>
    <path class="cls-1" d="M44.95,8.76c.86,0,1.55-.69,1.55-1.55s-.69-1.55-1.55-1.55-1.55.69-1.55,1.55.69,1.55,1.55,1.55Z"/>
    <path class="cls-1" d="M38.99,13.41c.54,0,.97-.44.97-.97s-.44-.97-.97-.97-.97.44-.97.97.44.97.97.97Z"/>
    <path class="cls-1" d="M38.99,8.18c.54,0,.97-.44.97-.97s-.44-.97-.97-.97-.97.44-.97.97.44.97.97.97Z"/>
    <path class="cls-1" d="M38.99,16.12c-.86,0-1.55.69-1.55,1.55s.69,1.55,1.55,1.55,1.55-.69,1.55-1.55-.69-1.55-1.55-1.55Z"/>
    <path class="cls-1" d="M33.03,16.7c-.54,0-.97.44-.97.97s.44.97.97.97.97-.44.97-.97-.44-.97-.97-.97Z"/>
    <path class="cls-1" d="M58.37,13.74c.36-.39.92-.67,1.49-.67s1.13.28,1.49.68h0s0,0,.01.01h0c.28.34.48.81.48,1.28s-.23.99-.51,1.33h0c-.31.35-.47.78-.47,1.28s.16.93.47,1.28h0c.28.34.51.86.51,1.33s-.22,1.01-.54,1.36h0c-.29.35-.45.77-.45,1.26,0,1.1.89,1.98,1.98,1.98s1.98-.89,1.98-1.98c0-.49-.16-.93-.46-1.27h0c-.29-.35-.52-.85-.52-1.34s.21-.98.51-1.33h0s0,0,0,0h0c.36-.39.9-.65,1.47-.65s1.16.32,1.53.72h0c.36.39.88.63,1.45.63.49,0,.93-.18,1.28-.47h0l6-5.27h0c.4-.36.66-.89.66-1.48s-.25-1.09-.63-1.45h0l-6.04-5.3h0c-.34-.29-.79-.46-1.27-.46-.56,0-1.06.23-1.42.6h0c-.36.41-.97.75-1.56.75s-1.12-.28-1.48-.66h0s0,0,0,0h0c-.29-.35-.5-.83-.5-1.32s.24-1.01.54-1.36h0c.28-.34.45-.77.45-1.25,0-1.1-.89-1.98-1.98-1.98s-1.98.89-1.98,1.98c0,.51.19.97.51,1.32h0c.28.34.48.82.48,1.29s-.2.95-.48,1.29h0s0,0,0,0h0c-.36.41-.9.68-1.5.68s-1.17-.33-1.53-.71h0c-.36-.41-.87-.64-1.46-.64-1.1,0-1.98.89-1.98,1.98,0,.5.17.93.47,1.28h0c.28.34.51.85.51,1.33s-.2.97-.49,1.31h0s0,0-.01.01h0c-.36.41-.88.68-1.47.68s-1.12-.28-1.48-.66h0s0,0,0,0c-.03-.04-.03-.03-.04-.05h0c-.29-.35-.47-.8-.47-1.29s.19-.95.49-1.29h0c.31-.35.49-.81.49-1.31,0-1.1-.89-1.98-1.98-1.98s-1.98.89-1.98,1.98c0,.53.2,1.01.54,1.36h0c.28.34.44.77.45,1.24,0,.55-.18.96-.38,1.18-.23.25-1.26,1.02-1.97,1.02-.64,0-1.23-.54-1.74-.86-.05-.03-.1-.07-.16-.09-.03-.02-.07-.03-.1-.05-.03-.01-.06-.03-.09-.04-.05-.02-.1-.03-.14-.04h0c-.12-.03-.25-.05-.39-.05-.86,0-1.55.69-1.55,1.55h0c0,.17.03.33.07.48h0s.01.05.02.08c.01.03.02.06.04.09.03.07.06.13.11.2,0,0,.02.03.02.04.32.51.88,1.17.86,1.74,0,.64-.56,1.23-.87,1.75,0,0,0,0,0,0-.05.08-.09.15-.12.22-.01.03-.03.06-.04.09-.01.03-.02.06-.03.09h0c-.05.15-.07.3-.07.46,0,.86.69,1.55,1.55,1.55s1.55-.69,1.55-1.55c0-.15-.02-.28-.06-.42h0s-.03-.1-.05-.15c0-.02-.04-.09-.05-.11-.25-.56-.98-1.19-.98-1.94,0-.32.13-.62.31-.91.34-.58,1.08-1.29,1.89-1.29.72,0,1.49.41,1.96,1.02,0,0,0,.01.01.02.05.07.1.15.15.22.15.28.24.59.24.93,0,.48-.06.85-.46,1.27h0c-.33.35-.54.83-.54,1.36,0,1.1.89,1.98,1.98,1.98.61,0,1.16-.27,1.52-.71h0c.36-.39.89-.63,1.46-.63s1.19.33,1.55.73h0c.36.38.86.61,1.43.61,1.1,0,1.98-.89,1.98-1.98,0-.46-.14-.86-.4-1.19h0c-.29-.35-.58-.95-.58-1.44s.19-.95.49-1.3M67.32,8.54h0s.01,0,.02.01h0c.28.34.47.8.47,1.27s-.19.95-.47,1.29h.01s0,0-.01.01h0c-.36.4-.91.68-1.5.68s-1.11-.27-1.47-.65h0s-.01,0-.02-.01h0c-.29-.35-.5-.83-.5-1.32s.2-.97.51-1.32h-.01s0,0,.01-.01h0c.36-.38.9-.65,1.47-.65s1.14.3,1.5.7ZM52.64,11.48s0,0,0,0c0,0,0,0,0,0ZM55.43,16.31c-.36.41-.94.73-1.53.73s-1.07-.24-1.44-.62h0s0-.01-.02-.02h0c-.29-.35-.52-.88-.52-1.37s.19-.95.49-1.3h0s.02-.03.03-.04h0c.36-.39.89-.62,1.46-.62s1.12.27,1.48.67h0s.01.01.02.03h0c.28.34.48.79.48,1.27s-.13.91-.45,1.27M58.41,11.19h0s0,0,0,0c-.03-.03-.05-.06-.08-.09,0,0,0,0,0,0h0c-.29-.35-.47-.8-.47-1.29s.19-.95.49-1.29h0s.02-.03.03-.04h0c.36-.37.9-.64,1.47-.64s1.15.31,1.51.71h0s0,0,.01,0h0c.28.34.47.8.47,1.27s-.2.95-.48,1.29h.01s-.01.01-.02.02h0c-.36.4-.91.68-1.5.68s-1.08-.24-1.44-.62ZM60.85,12.44s0,0,0,0c0,0,0,0,0,0h0Z"/>
  </g>
  <g class="cls-4">
    <g>
      <path class="cls-3" d="M7.14,46.47c-1.08,0-2.06-.15-2.93-.45-.87-.3-1.62-.75-2.25-1.34-.63-.6-1.12-1.34-1.45-2.22-.34-.88-.5-1.9-.5-3.05s.18-2.2.53-3.1c.35-.9.86-1.67,1.51-2.29.66-.63,1.44-1.1,2.34-1.42.91-.32,1.91-.48,3.02-.48,1.31,0,2.44.22,3.39.65.95.43,1.7,1.04,2.24,1.82.55.78.86,1.71.93,2.79h-2.31c-.16-.57-.41-1.06-.77-1.48-.36-.42-.82-.75-1.4-.98-.58-.23-1.27-.35-2.09-.35-1.05,0-1.94.2-2.68.6-.74.4-1.3.96-1.69,1.68-.39.72-.58,1.58-.58,2.56s.17,1.77.51,2.46c.34.69.86,1.22,1.56,1.59.7.37,1.6.55,2.7.55.84,0,1.58-.13,2.23-.4.64-.26,1.18-.62,1.61-1.06s.74-.95.92-1.5l.94-.41c-.16,1.83-.74,3.26-1.76,4.28-1.02,1.02-2.36,1.53-4.03,1.53ZM12.31,46.19c0-.44.02-.95.07-1.52.05-.57.11-1.16.18-1.75.07-.59.14-1.13.2-1.63h-5.34v-1.81h6.96v6.71h-2.07Z"/>
      <path class="cls-3" d="M21.89,46.45c-1.13,0-2.12-.21-2.98-.64-.86-.43-1.53-1.05-2.01-1.86-.48-.82-.72-1.82-.72-3.02s.24-2.21.72-3.04c.48-.83,1.15-1.46,2.01-1.89.86-.42,1.85-.64,2.98-.64s2.12.21,2.97.64c.85.43,1.51,1.06,1.99,1.89.48.83.72,1.84.72,3.04s-.24,2.2-.72,3.02c-.48.82-1.15,1.44-1.99,1.86s-1.84.64-2.97.64ZM21.89,44.32c.63,0,1.19-.13,1.69-.4.5-.26.89-.65,1.18-1.15s.43-1.12.43-1.84-.14-1.35-.43-1.86-.68-.91-1.17-1.18c-.49-.27-1.06-.41-1.69-.41s-1.19.14-1.69.41c-.5.27-.9.66-1.2,1.17-.29.51-.44,1.14-.44,1.87s.14,1.34.43,1.84c.29.5.68.89,1.19,1.15.5.26,1.08.4,1.71.4Z"/>
      <path class="cls-3" d="M34.58,46.45c-1.13,0-2.12-.21-2.98-.64-.86-.43-1.53-1.05-2.01-1.86-.48-.82-.72-1.82-.72-3.02s.24-2.21.72-3.04c.48-.83,1.15-1.46,2.01-1.89.86-.42,1.85-.64,2.98-.64s2.12.21,2.97.64c.85.43,1.51,1.06,1.99,1.89.48.83.72,1.84.72,3.04s-.24,2.2-.72,3.02c-.48.82-1.15,1.44-1.99,1.86s-1.84.64-2.97.64ZM34.58,44.32c.63,0,1.19-.13,1.69-.4.5-.26.89-.65,1.18-1.15s.43-1.12.43-1.84-.14-1.35-.43-1.86-.68-.91-1.17-1.18c-.49-.27-1.06-.41-1.69-.41s-1.19.14-1.69.41c-.5.27-.9.66-1.2,1.17-.29.51-.44,1.14-.44,1.87s.14,1.34.43,1.84c.29.5.68.89,1.19,1.15.5.26,1.08.4,1.71.4Z"/>
      <path class="cls-3" d="M46.35,46.43c-.9,0-1.72-.23-2.44-.69-.73-.46-1.3-1.11-1.72-1.94-.42-.83-.63-1.79-.63-2.89s.21-2.1.62-2.92c.41-.82.98-1.47,1.7-1.93s1.54-.69,2.47-.69c.8,0,1.49.14,2.06.42.56.28,1.02.68,1.37,1.18.35.5.6,1.09.77,1.76.16.67.24,1.39.24,2.17,0,.62-.08,1.26-.25,1.91-.17.65-.43,1.24-.78,1.79-.35.55-.81.99-1.37,1.32-.56.33-1.24.5-2.04.5ZM47.11,44.3c.71,0,1.32-.14,1.84-.42.52-.28.91-.68,1.19-1.19.28-.51.41-1.1.41-1.77,0-.72-.14-1.34-.42-1.84-.28-.5-.68-.89-1.19-1.16-.51-.27-1.12-.41-1.83-.41-1,0-1.77.31-2.33.94-.55.63-.83,1.45-.83,2.47,0,.68.13,1.27.4,1.78.26.5.63.9,1.11,1.18s1.02.42,1.65.42ZM50.55,31.34h2.34v14.85h-2.18c-.04-.33-.07-.75-.11-1.27s-.05-1.01-.05-1.46v-12.12Z"/>
    </g>
    <path class="cls-3" d="M67.28,31.35v2.4h-9.2v3.89h7.53v2.25h-7.53v6.29h-2.46v-14.84h11.65Z"/>
    <path class="cls-3" d="M76.12,41.13l.02.72c-.02.2-.08.48-.18.86-.1.37-.24.77-.44,1.2-.2.42-.46.83-.77,1.22-.31.39-.7.71-1.16.95-.46.25-1,.37-1.63.37-.49,0-.98-.07-1.45-.21-.48-.14-.91-.38-1.29-.71-.39-.33-.69-.78-.92-1.35-.23-.57-.34-1.28-.34-2.14v-6.38h2.35v5.91c0,.68.09,1.21.28,1.6s.46.66.82.82c.36.16.79.23,1.28.23.65,0,1.21-.17,1.68-.5.47-.33.85-.74,1.15-1.22.29-.48.5-.94.61-1.38ZM78.34,46.19h-2.35v-10.54h2.35v10.54Z"/>
    <path class="cls-3" d="M80.48,35.66h2.35v10.54h-2.35v-10.54ZM87,35.43c.55,0,1.07.08,1.54.25s.88.43,1.23.78c.35.35.62.8.81,1.35.19.55.29,1.19.29,1.94v6.45h-2.35v-5.96c0-.89-.18-1.54-.55-1.96-.37-.42-.97-.62-1.8-.62-.63,0-1.19.14-1.7.42-.51.28-.92.64-1.23,1.07-.31.43-.49.88-.54,1.35l-.02-1.08c.06-.5.2-.97.42-1.44.22-.47.51-.89.88-1.28s.8-.7,1.31-.92,1.08-.34,1.72-.34Z"/>
    <path class="cls-3" d="M97.37,46.43c-.9,0-1.72-.23-2.45-.69-.73-.46-1.3-1.1-1.73-1.93-.42-.83-.63-1.79-.63-2.87s.21-2.09.62-2.91c.42-.82.98-1.46,1.71-1.92.72-.46,1.55-.69,2.48-.69.81,0,1.49.14,2.06.42.57.28,1.02.68,1.37,1.18.35.5.61,1.09.77,1.75.16.66.24,1.39.24,2.16,0,.62-.08,1.25-.25,1.9-.17.64-.43,1.24-.78,1.78-.35.54-.81.98-1.37,1.31-.57.33-1.25.5-2.04.5ZM98.13,44.31c.71,0,1.33-.14,1.84-.42.52-.28.92-.68,1.19-1.19.28-.51.42-1.09.42-1.76,0-.72-.14-1.33-.42-1.83-.28-.5-.68-.89-1.19-1.16-.51-.27-1.12-.4-1.83-.4-1,0-1.78.31-2.33.93-.55.62-.83,1.44-.83,2.46,0,.68.13,1.27.4,1.77.26.5.64.89,1.11,1.18.48.28,1.03.42,1.65.42ZM101.59,31.35h2.35v14.84h-2.19c-.04-.32-.07-.75-.11-1.26s-.05-1-.05-1.45v-12.13Z"/>
    <path class="cls-3" d="M105.38,42.7h2.17c.13.48.41.87.82,1.18.42.31.96.46,1.64.46.46,0,.81-.05,1.07-.15.25-.1.43-.24.52-.43.1-.19.14-.41.14-.65,0-.3-.08-.53-.24-.69s-.4-.29-.72-.39c-.33-.1-.74-.19-1.25-.27-.51-.1-.99-.22-1.46-.36-.47-.14-.89-.33-1.25-.56-.36-.23-.65-.53-.86-.89-.21-.36-.32-.8-.32-1.32s.11-.96.32-1.36c.21-.4.51-.73.89-1s.83-.47,1.34-.61c.51-.14,1.06-.21,1.65-.21.89,0,1.63.15,2.22.46s1.03.73,1.33,1.27c.3.55.44,1.17.44,1.88h-2.08c-.1-.52-.29-.9-.58-1.14s-.74-.35-1.34-.35-1.04.11-1.34.32c-.3.21-.45.5-.45.87,0,.3.09.53.28.69s.46.29.83.39c.37.1.83.21,1.38.32.47.11.92.24,1.35.38.43.14.81.32,1.15.54s.61.51.8.87.3.82.3,1.37c0,.68-.17,1.25-.5,1.72-.33.47-.8.82-1.42,1.07-.61.25-1.35.37-2.2.37-.76,0-1.41-.09-1.96-.28-.55-.19-1-.44-1.36-.74-.36-.3-.64-.63-.84-.97-.2-.35-.33-.67-.41-.99-.07-.31-.1-.57-.07-.76Z"/>
  </g>
  <g class="cls-4">
    <path class="cls-2" d="M.31,55.05v-5.51h1.88c.44,0,.83.08,1.16.23s.61.37.83.63c.22.26.39.56.5.89.11.33.17.66.17,1.01s-.06.68-.17,1.01c-.11.33-.28.62-.5.89-.22.26-.5.47-.83.63-.33.16-.72.23-1.16.23H.31ZM2.16,50.3h-.98v3.99h.98c.31,0,.58-.06.8-.17s.42-.26.57-.45c.15-.19.26-.4.34-.64.08-.24.12-.48.12-.73s-.04-.49-.12-.73c-.08-.24-.19-.45-.34-.64-.15-.19-.34-.34-.57-.45s-.5-.17-.8-.17Z"/>
    <path class="cls-2" d="M7.62,51.03c.25,0,.46.04.62.12.17.08.3.17.4.28.1.1.17.19.22.27h.04v-.59h.85v3.95h-.85v-.59h-.04c-.04.07-.12.16-.22.27-.1.1-.23.2-.4.28-.17.08-.37.12-.62.12-.3,0-.56-.06-.78-.18-.22-.12-.41-.27-.55-.47s-.26-.42-.33-.66c-.07-.24-.11-.49-.11-.74s.04-.5.11-.75c.07-.24.18-.46.33-.66s.33-.35.55-.47c.22-.12.48-.17.78-.17ZM7.8,51.74c-.24,0-.45.07-.61.2-.16.13-.29.3-.37.5s-.12.42-.12.64.04.44.12.64.21.37.37.5c.16.13.37.2.61.2s.45-.07.61-.2c.16-.13.28-.3.37-.5s.12-.42.12-.64-.04-.44-.12-.64-.2-.37-.37-.5c-.16-.13-.36-.2-.61-.2Z"/>
    <path class="cls-2" d="M12.44,55.13c-.31,0-.57-.04-.77-.13-.2-.09-.36-.19-.48-.32-.12-.13-.21-.25-.26-.38-.06-.13-.1-.28-.13-.45h.83c.03.12.08.23.13.31.05.08.14.15.25.21.11.06.27.09.46.09.23,0,.4-.05.51-.16.11-.1.17-.22.17-.36s-.05-.23-.14-.31c-.09-.07-.23-.13-.4-.17l-.54-.12c-.21-.05-.4-.12-.58-.21-.18-.09-.33-.2-.44-.35-.11-.15-.17-.34-.17-.57,0-.34.13-.63.39-.85.26-.22.61-.33,1.04-.33.28,0,.52.04.7.12.19.08.33.18.44.29.11.12.19.23.25.35s.1.25.13.41h-.8c-.03-.1-.07-.18-.12-.25-.05-.07-.12-.13-.22-.18-.1-.05-.23-.08-.39-.08-.22,0-.38.05-.48.15-.1.1-.15.21-.15.32s.05.21.15.28c.1.07.22.12.38.15l.53.12c.35.08.64.21.87.39.23.18.34.44.34.79,0,.23-.06.44-.17.62-.12.19-.29.33-.51.45s-.49.17-.81.17Z"/>
    <path class="cls-2" d="M16.94,55.05v-5.51h.79l2.71,3.96v-3.96h.87v5.51h-.8l-2.7-3.93v3.93h-.86Z"/>
    <path class="cls-2" d="M24.39,55.13c-.33,0-.62-.06-.86-.18s-.44-.27-.6-.47c-.16-.2-.27-.42-.35-.66-.08-.24-.12-.49-.12-.74s.04-.49.11-.74c.08-.24.19-.46.34-.66.15-.2.35-.36.59-.47.24-.12.52-.17.84-.17.35,0,.65.08.92.23.27.16.47.39.63.69.15.31.23.68.23,1.14v.23h-2.8c.02.3.12.56.31.78.18.22.44.33.76.33.18,0,.33-.03.45-.09s.21-.13.28-.21.12-.18.18-.3h.79c-.05.17-.11.33-.17.45-.07.13-.16.26-.29.39-.12.13-.29.24-.49.32-.2.09-.45.13-.75.13ZM23.33,52.73h1.97c-.02-.35-.12-.6-.31-.77s-.4-.25-.65-.25c-.28,0-.51.09-.69.27-.18.18-.29.43-.32.74Z"/>
    <path class="cls-2" d="M28.88,55.13c-.31,0-.56-.06-.75-.17s-.32-.27-.41-.46c-.08-.19-.12-.4-.12-.62v-2.09h-.69v-.69h.69v-.98h.85v.98h.92v.69h-.92v2.07c0,.37.21.56.62.56.1,0,.25-.01.42-.04v.69c-.24.04-.45.06-.61.06Z"/>
    <path class="cls-2" d="M30.38,55.05v-.59l2.21-2.67h-2.1v-.69h3.13v.59l-2.21,2.67h2.21v.69h-3.23Z"/>
    <path class="cls-2" d="M35.74,55.05l-1.26-3.95h.86l.86,2.85.91-2.85h.79l.91,2.85.86-2.85h.86l-1.27,3.95h-.9l-.86-2.71-.86,2.71h-.91Z"/>
    <path class="cls-2" d="M43.14,55.13c-.33,0-.62-.06-.86-.18s-.44-.27-.6-.47c-.16-.2-.27-.42-.35-.66-.08-.24-.12-.49-.12-.74s.04-.49.11-.74c.08-.24.19-.46.34-.66.15-.2.35-.36.59-.47.24-.12.52-.17.84-.17.35,0,.65.08.92.23.27.16.47.39.63.69.15.31.23.68.23,1.14v.23h-2.8c.02.3.12.56.31.78.18.22.44.33.76.33.18,0,.33-.03.45-.09s.21-.13.28-.21.12-.18.18-.3h.79c-.05.17-.11.33-.17.45-.07.13-.16.26-.29.39-.12.13-.29.24-.49.32-.2.09-.45.13-.75.13ZM42.08,52.73h1.97c-.02-.35-.12-.6-.31-.77s-.4-.25-.65-.25c-.28,0-.51.09-.69.27-.18.18-.29.43-.32.74Z"/>
    <path class="cls-2" d="M45.98,55.05v-3.95h.85v.52h.03c.07-.15.19-.29.35-.41s.4-.18.7-.18c.09,0,.21,0,.34.03v.82c-.15-.02-.27-.03-.37-.03-.35,0-.61.1-.79.29-.18.2-.27.51-.27.95v1.96h-.85Z"/>
    <path class="cls-2" d="M49.25,55.05v-5.66h.85v3.29l1.48-1.57h1.04l-1.72,1.8,1.77,2.15h-1.05l-1.53-1.86v1.86h-.85Z"/>
    <path class="cls-2" d="M55.96,55.05v-3.26h-.64v-.69h.64v-.42c0-.15.02-.31.06-.47.04-.16.11-.31.2-.44.09-.14.22-.25.39-.33.16-.08.37-.12.62-.12.14,0,.31.02.5.07v.64c-.14-.03-.26-.04-.35-.04-.22,0-.37.07-.45.2-.08.13-.12.3-.12.5v.42h.88v.69h-.88v3.26h-.85Z"/>
    <path class="cls-2" d="M60.03,55.13c-.4,0-.71-.12-.93-.37-.22-.25-.33-.58-.33-.99v-2.66h.85v2.56c0,.24.06.42.19.56.13.13.3.2.52.2s.38-.05.51-.16c.13-.11.22-.25.28-.42.06-.17.08-.35.08-.53v-2.19h.85v3.95h-.85v-.57h-.04c-.04.07-.1.16-.19.26-.09.1-.21.19-.36.26-.15.07-.34.11-.58.11ZM59.64,50.55c-.15,0-.28-.05-.38-.15-.1-.1-.15-.22-.15-.36s.05-.27.15-.37c.1-.1.22-.15.38-.15s.27.05.37.15c.1.1.15.22.15.37s-.05.27-.15.36c-.1.1-.22.15-.37.15ZM61.14,50.55c-.15,0-.28-.05-.38-.15-.1-.1-.15-.22-.15-.36s.05-.27.15-.37c.1-.1.22-.15.38-.15s.27.05.37.15c.1.1.15.22.15.37s-.05.27-.15.36c-.1.1-.22.15-.37.15Z"/>
    <path class="cls-2" d="M63.27,55.05v-3.95h.85v.52h.03c.07-.15.19-.29.35-.41s.4-.18.7-.18c.09,0,.21,0,.34.03v.82c-.15-.02-.27-.03-.37-.03-.35,0-.61.1-.79.29-.18.2-.27.51-.27.95v1.96h-.85Z"/>
    <path class="cls-2" d="M70.94,55.13c-.46,0-.85-.08-1.19-.24-.34-.16-.62-.37-.84-.64-.22-.27-.39-.57-.5-.91-.11-.33-.16-.68-.16-1.03s.05-.7.16-1.04c.11-.34.28-.64.5-.91.23-.27.51-.49.85-.65.34-.16.74-.24,1.2-.24.36,0,.66.04.92.13.25.09.47.21.64.35s.31.29.42.45c.1.16.18.31.24.45s.1.31.14.48h-.87c-.04-.15-.09-.28-.14-.38-.06-.11-.14-.21-.25-.32s-.25-.2-.43-.27c-.18-.07-.39-.11-.65-.11-.31,0-.58.06-.81.17-.23.12-.42.27-.57.47s-.26.41-.34.66c-.08.24-.11.49-.11.74s.04.51.12.76c.08.25.19.47.34.66.15.2.34.35.57.47.23.11.49.17.79.17.47,0,.85-.13,1.12-.4.28-.27.43-.63.46-1.09h-1.57v-.7h2.41v.39c0,.57-.11,1.04-.32,1.42s-.51.67-.88.86c-.37.19-.78.29-1.24.29Z"/>
    <path class="cls-2" d="M76.26,55.13c-.33,0-.62-.06-.86-.18s-.44-.27-.6-.47c-.16-.2-.27-.42-.35-.66-.08-.24-.12-.49-.12-.74s.04-.49.11-.74c.08-.24.19-.46.34-.66.15-.2.35-.36.59-.47.24-.12.52-.17.84-.17.35,0,.65.08.92.23.27.16.47.39.63.69.15.31.23.68.23,1.14v.23h-2.8c.02.3.12.56.31.78.18.22.44.33.76.33.18,0,.33-.03.45-.09s.21-.13.28-.21.12-.18.18-.3h.79c-.05.17-.11.33-.17.45-.07.13-.16.26-.29.39-.12.13-.29.24-.49.32-.2.09-.45.13-.75.13ZM75.2,52.73h1.97c-.02-.35-.12-.6-.31-.77s-.4-.25-.65-.25c-.28,0-.51.09-.69.27-.18.18-.29.43-.32.74Z"/>
    <path class="cls-2" d="M79.08,55.05v-3.95h.85v.56h.03c.04-.08.11-.17.2-.27.09-.1.2-.19.35-.26s.33-.11.54-.11c.29,0,.54.07.73.21s.34.32.43.55h.01c.1-.2.26-.38.45-.53.2-.15.46-.23.79-.23.28,0,.51.07.71.2.19.13.34.31.44.53.1.22.15.47.15.75v2.55h-.85v-2.43c0-.26-.06-.47-.19-.63s-.31-.25-.55-.25c-.2,0-.36.05-.48.16-.12.11-.21.24-.26.41-.05.16-.08.32-.08.49v2.25h-.85v-2.43c0-.26-.06-.47-.19-.63-.12-.16-.31-.25-.55-.25-.2,0-.36.05-.48.16-.12.11-.21.24-.26.41-.05.16-.08.32-.08.49v2.25h-.85Z"/>
    <path class="cls-2" d="M87.77,55.13c-.33,0-.62-.06-.86-.18s-.44-.27-.6-.47c-.16-.2-.27-.42-.35-.66-.08-.24-.12-.49-.12-.74s.04-.49.11-.74c.08-.24.19-.46.34-.66.15-.2.35-.36.59-.47.24-.12.52-.17.84-.17.35,0,.65.08.92.23.27.16.47.39.63.69.15.31.23.68.23,1.14v.23h-2.8c.02.3.12.56.31.78.18.22.44.33.76.33.18,0,.33-.03.45-.09s.21-.13.28-.21.12-.18.18-.3h.79c-.05.17-.11.33-.17.45-.07.13-.16.26-.29.39-.12.13-.29.24-.49.32-.2.09-.45.13-.75.13ZM86.71,52.73h1.97c-.02-.35-.12-.6-.31-.77s-.4-.25-.65-.25c-.28,0-.51.09-.69.27-.18.18-.29.43-.32.74Z"/>
    <path class="cls-2" d="M91.14,50.42c-.15,0-.28-.05-.38-.16-.1-.1-.15-.23-.15-.37s.05-.27.15-.37c.1-.1.23-.15.38-.15s.28.05.38.15c.1.1.15.22.15.37s-.05.27-.15.37c-.1.1-.23.15-.38.15ZM90.72,55.05v-3.95h.85v3.95h-.85Z"/>
    <path class="cls-2" d="M92.84,55.05v-3.95h.85v.57h.04c.03-.07.09-.15.18-.26.08-.1.2-.19.35-.27s.34-.12.58-.12c.29,0,.54.07.74.2.2.13.35.31.45.54.1.22.15.47.15.74v2.55h-.85v-2.46c0-.24-.07-.44-.2-.6s-.33-.25-.58-.25c-.2,0-.37.05-.5.15-.13.1-.22.23-.28.4-.06.16-.09.33-.09.52v2.24h-.85Z"/>
    <path class="cls-2" d="M98.21,55.05l-1.26-3.95h.86l.86,2.85.91-2.85h.79l.91,2.85.86-2.85h.86l-1.27,3.95h-.9l-.86-2.71-.86,2.71h-.91Z"/>
    <path class="cls-2" d="M105.67,55.13c-.43,0-.8-.1-1.09-.29-.3-.19-.52-.45-.67-.76-.15-.31-.23-.65-.23-1s.08-.69.23-1c.15-.31.37-.57.67-.76s.66-.29,1.09-.29.79.1,1.08.29c.29.19.52.45.67.76s.23.65.23,1-.08.69-.23,1-.38.57-.67.76c-.3.19-.66.29-1.08.29ZM105.67,54.4c.24,0,.45-.06.61-.19.17-.12.29-.29.38-.49s.13-.42.13-.65-.04-.45-.13-.65-.21-.36-.38-.49c-.17-.12-.37-.19-.61-.19s-.45.06-.62.19c-.17.12-.3.29-.38.49-.08.2-.13.42-.13.65s.04.44.13.65c.08.2.21.37.38.49.17.12.37.19.62.19Z"/>
    <path class="cls-2" d="M108.82,55.05v-5.66h.85v2.29h.04c.04-.07.09-.15.18-.26.08-.1.2-.19.35-.27s.34-.12.58-.12c.29,0,.54.07.74.2.2.13.35.31.45.54.1.22.15.47.15.74v2.55h-.85v-2.46c0-.24-.07-.44-.2-.6s-.33-.25-.58-.25c-.2,0-.37.05-.5.15-.13.1-.22.23-.28.4-.06.16-.09.33-.09.52v2.24h-.85Z"/>
    <path class="cls-2" d="M113.41,55.05v-5.66h.85v5.66h-.85Z"/>
  </g>
</svg>